<svg width="100" height="58" viewBox="0 0 100 58" fill="none" xmlns="http://www.w3.org/2000/svg">
<path d="M37.856 2.03223H54.4741L36.4648 57H18.9819L1.04785 2.03223H17.7412L25.2231 29.8921C26.7772 36.0832 27.6294 40.3944 27.7798 42.8257C27.9552 41.0711 28.3062 38.8779 28.8325 36.2461C29.3589 33.6143 29.8226 31.5464 30.2236 30.0425L37.856 2.03223ZM96.3955 40.3066C96.3955 43.7155 95.5308 46.7484 93.8013 49.4053C92.0718 52.0371 89.5778 54.0924 86.3193 55.5713C83.0609 57.0251 79.2384 57.752 74.8521 57.752C71.1925 57.752 68.1221 57.5013 65.6406 57C63.1592 56.4736 60.5775 55.5713 57.8955 54.293V41.0586C60.7279 42.5124 63.673 43.6528 66.731 44.48C69.7889 45.2821 72.5962 45.6831 75.1528 45.6831C77.3586 45.6831 78.9753 45.3071 80.0029 44.5552C81.0306 43.7782 81.5444 42.7881 81.5444 41.585C81.5444 40.833 81.3314 40.1813 80.9053 39.6299C80.5042 39.0534 79.84 38.4769 78.9126 37.9004C78.0103 37.3239 75.5789 36.1458 71.6187 34.3662C68.0343 32.737 65.3398 31.1579 63.5352 29.6289C61.7555 28.0999 60.4271 26.3454 59.5498 24.3652C58.6976 22.3851 58.2715 20.0415 58.2715 17.3345C58.2715 12.2713 60.1138 8.32357 63.7983 5.49121C67.4829 2.65885 72.5461 1.24268 78.9878 1.24268C84.6776 1.24268 90.4801 2.55859 96.3955 5.19043L91.8462 16.6577C86.7078 14.3016 82.2713 13.1235 78.5366 13.1235C76.6066 13.1235 75.203 13.4619 74.3257 14.1387C73.4484 14.8154 73.0098 15.6551 73.0098 16.6577C73.0098 17.7355 73.5612 18.7005 74.6641 19.5527C75.792 20.4049 78.8249 21.959 83.7627 24.2148C88.5 26.3454 91.7835 28.6388 93.6133 31.0952C95.4681 33.5265 96.3955 36.597 96.3955 40.3066Z" fill="black"/>
</svg>
